<?xml version="1.0" encoding="UTF-8"?>
<svg width="42px" height="30px" viewBox="0 0 42 30" version="1.1" xmlns="http://www.w3.org/2000/svg" xmlns:xlink="http://www.w3.org/1999/xlink">
    <title>credit-card</title>
    <g id="Page-1" stroke="none" stroke-width="1" fill="none" fill-rule="evenodd">
        <g id="Select_payment" transform="translate(-661.000000, -259.000000)" fill-rule="nonzero">
            <g id="credit-card" transform="translate(661.000000, 259.000000)">
                <path d="M39.6704483,30 L2.32955172,30 C1.04275862,30 0,28.9714286 0,27.7021429 L0,2.29785714 C0,1.02857143 1.04275862,0 2.32955172,0 L39.6704483,0 C40.9572414,0 42,1.02857143 42,2.29785714 L42,27.7021429 C42,28.9714286 40.9572414,30 39.6704483,30" id="XMLID_115_" fill="#F0C41B"></path>
                <rect id="XMLID_114_" fill="#806F5E" x="0" y="3" width="42" height="6"></rect>
                <path d="M11.2727273,14 L4.72727273,14 C4.32581818,14 4,13.552 4,13 C4,12.448 4.32581818,12 4.72727273,12 L11.2727273,12 C11.6741818,12 12,12.448 12,13 C12,13.552 11.6741818,14 11.2727273,14" id="XMLID_113_" fill="#F9EAB0"></path>
                <path d="M20.2727273,14 L13.7272727,14 C13.3258182,14 13,13.552 13,13 C13,12.448 13.3258182,12 13.7272727,12 L20.2727273,12 C20.6741818,12 21,12.448 21,13 C21,13.552 20.6741818,14 20.2727273,14" id="XMLID_112_" fill="#F9EAB0"></path>
                <path d="M5,18 L4,18 C3.448,18 3,17.552 3,17 C3,16.448 3.448,16 4,16 L5,16 C5.552,16 6,16.448 6,17 C6,17.552 5.552,18 5,18" id="XMLID_111_" fill="#F9EAB0"></path>
                <path d="M9.25,18 L7.75,18 C7.336,18 7,17.552 7,17 C7,16.448 7.336,16 7.75,16 L9.25,16 C9.664,16 10,16.448 10,17 C10,17.552 9.664,18 9.25,18" id="XMLID_110_" fill="#F9EAB0"></path>
                <path d="M14,18 L13,18 C12.448,18 12,17.552 12,17 C12,16.448 12.448,16 13,16 L14,16 C14.552,16 15,16.448 15,17 C15,17.552 14.552,18 14,18" id="XMLID_109_" fill="#F9EAB0"></path>
                <path d="M17.25,18 L15.75,18 C15.336,18 15,17.552 15,17 C15,16.448 15.336,16 15.75,16 L17.25,16 C17.664,16 18,16.448 18,17 C18,17.552 17.664,18 17.25,18" id="XMLID_108_" fill="#F9EAB0"></path>
                <path d="M20,18 C19.74,18 19.48,17.8893082 19.29,17.7081761 C19.11,17.5169811 19,17.2654088 19,16.9937107 C19,16.7320755 19.11,16.4704403 19.29,16.2792453 C19.66,15.9069182 20.33,15.9069182 20.71,16.2792453 C20.89,16.4704403 21,16.7320755 21,16.9937107 C21,17.2553459 20.89,17.5169811 20.71,17.7081761 C20.52,17.8893082 20.26,18 20,18" id="XMLID_107_" fill="#F9EAB0"></path>
                <path d="M33,22 C33,24.2093333 31.2093333,26 29,26 C26.7906667,26 25,24.2093333 25,22 C25,19.7906667 26.7906667,18 29,18 C31.2093333,18 33,19.7906667 33,22" id="XMLID_106_" fill="#DB2215"></path>
                <path d="M38,22 C38,24.2093333 36.2093333,26 34,26 C31.7906667,26 30,24.2093333 30,22 C30,19.7906667 31.7906667,18 34,18 C36.2093333,18 38,19.7906667 38,22" id="XMLID_105_" fill="#245EA9"></path>
            </g>
        </g>
    </g>
</svg>