<svg xmlns="http://www.w3.org/2000/svg" viewBox="0 0 80 80" width="80" height="80">
    <path class="logo-ftd-bg" fill-rule="evenodd" d="M0 80h80V0H0v80z"/>
    <path class="logo-ftd" fill="#CAAD59" fill-rule="evenodd" d="M66.755 62.203a.782.782 0 1 0 0 1.566.783.783 0 1 0 0-1.566zm0 1.436a.635.635 0 0 1-.642-.652.639.639 0 1 1 1.276 0c0 .375-.28.652-.634.652zm.361-.847c0-.178-.106-.259-.322-.259h-.345v.903h.138v-.392h.159l.237.392h.156l-.26-.398c.134-.016.237-.089.237-.246zm-.529.137v-.277h.189c.096 0 .199.017.199.129 0 .139-.107.148-.224.148h-.164zM16.935 25.858c.051.231.37.476.885.648.164.055.054.408.493.457 1.498.165 3.726-.329 4.153-.645.22-.161.069-.525-.387-.865-.498-.369-1.102-.831-1.496-1.805-.393-.974-.809-1.111-1.125-1.217-.233-.078-.628-.052-1.151.373-.498.406-.931.377-1.199.927-.268.549.053.862.011 1.195-.044.334-.267.562-.184.932zm.831-.651c.579-.006.76-.161.76-.161s-.271-.363-.29-.867a1.13 1.13 0 0 1 .164-.616c.097-.144.229-.006.186.112a.909.909 0 0 0 .001.521c.124.434.6.345.747.026.148-.321.078-.629.052-.857-.021-.198.153-.183.222-.05.066.125.612 1.201-.198 1.828-.811.626-1.571.364-1.724.294-.151-.071-.124-.228.08-.23zM69.1 29.218s-.011 0-.028-.003c-.295-.214-.84-.447-1.753-.923-1.84-.959-2.619-.889-3.518-1.092-1.16-.26-.842-.485-2.6-.973-1.714-.477-2.288-.422-2.288-.422.421-1.345 1.276-.599 1.735-.695.399-.083.61-.309.582-.895-.026-.586.368-1.174.368-1.174s.288-.093.357-.133c.058-.035.059-.116.008-.205-.089-.157-.276-.464-.337-.826-.086-.5.143-.887.045-1.062-1.513-.471-4.46.93-4.17.535 2.336-1.589 5.331-1.491 4.731-1.847-.818-.486-.64-.804-1.706-1.576-.556-.403-1.322-.509-2.092-.422.155-.261.537-.961.398-1.307-.173-.432-2.731.172-4.456.229-1.724.057-2.766-.343-2.766-.343s.261.692 1.447.954c1.072.236 1.962.051 2.224.028.037-.003.178.244.178.244s-.394.159-1.374.159a5.906 5.906 0 0 1-1.827-.314s.641.757 1.719.898c1.151.15 1.85-.102 1.85-.102l.182.242c-1.62.618-2.942-.14-2.942-.14s.234.558 1.17.746c.872.175 1.416.032 1.486.012-.256.37-.368.793-.449 1.25-.083.313-.152.67-.188 1.054-.267 1.143-1.502 2.076-1.318 2.18.188.107 2.236-.945 2.236-.945s.005 1.379-.693 2.264c-.699.886-1.554.714-2.759 1.029-.653.172-.848.316-1.266.268-.593-.068-1.398-.102-2.142.097-.998.267-2.157.997-2.807 1.142-.579.131-2.436.298-3.196.55l-.564.193c-.477.171-.825.293-1.201.318-.215.01-.486.013-.79-.063-.442-.11-.992-.247-1.664-.202-.704.042-1.099.097-2.318.427-1.217.329-2.538.75-3.161.745-.933-.007-1.186-.217-1.932-.507-.371-.146-1.248-.095-1.874.103-.366-.281-.698-.55-.865-.744-.381-.446-.398-1.257-.934-1.857-.535-.6-.64-1.354-.6-1.888.041-.535.13-.681.008-1.281-.121-.6-.502-.88-.584-.843-.077.035-.201.61-.073 1.029.187.608.089 1.127.082 1.711-.005.332.211.892.162.892-.049 0-.471-.333-.56-.925-.034-.229-.032-1.531-.348-1.953-.317-.422-.374-1.224-.423-1.516-.18-1.085-.444-1.904-.584-1.834-.074.037-.126.195-.162.464-.082.607.011 1.316.053 1.735l-.003-.009c-.208-.336-.537-.506-.846-.31a2.487 2.487 0 0 0-.236.177 8.976 8.976 0 0 0 .107-1.391c0-.619-.219-.644-.585-.778-.364-.134-.352-.243-.547-.571-.195-.328-.511-.499-.816-.316-.303.182-.839.741-1.265.741-.426 0-.559.134-.815.693-.256.559-.414.365-.486.791-.054.312.392 1.525 1.594 1.922a5.2 5.2 0 0 0 .991.225c-.212.134-.474.32-.504.781-.049.732.605 1.746 1.646 2.052.489.143 1.24.214 1.814.144.827.117 1.39.617 1.959 1.028.373.271.997 1.014 1.323 1.322.128.122.916.681.979.753l.002.005a.542.542 0 0 0-.13.133c-.169-.073-1.086-.704-1.322-.907-.35-.301-1.339-1.433-2.459-1.895-.165-.068-.477.074-1.008.127-.56.057-.953-.032-1.095-.048-.194-.023-.307.186-1.142.47-.836.284-1.451.738-1.664.891-.21.154-.083.261.058.3.15.043 1.679.374 2.369-.016.689-.389 1.314-.624 1.85-.632.536-.008 1.071.211 1.703.794.632.584.739.487 1.112.576.373.089 1.022.495 1.501.891.478.398.609.471 1.233.812.625.34 4.133 2.739 4.344 2.828.211.088.445-.27.356-.368-.089-.097-.32-.247-.376-.337-.056-.089-.097-.397-.146-.486-.049-.089-.548-.34-1.111-.673a14.866 14.866 0 0 1-1.225-.813c1.112-.128 2.79-.096 5.151-.019 1.55.051 2.901-.291 3.992-.292 1.199 0 2.115.363 3.344.364 2.23.002 2.725-.043 2.725-.043s-.644 2.494-.644 4.306c0 1.486-.71 1.567-2.274 2.555-1.121.709-1.517 1.626-1.517 1.626-.028 0-2.946.119-5.274 1.296-2.259 1.138-2.716 1.218-2.883 1.291-.166.072-.261.036-.261.036-.031-.019-2.352-1.026-4.201-1.285-1.593-.224-2.58.081-2.872.081-1.68 0-3.318.058-3.318.058l1.07-.804c.312-.185.821-.531.869-.847.069-.459-2.443-1.232-3.959-2.055-1.517-.823-2.212-1.696-2.212-1.696s-.125.729.764 1.555c.806.745 1.637 1.028 1.874 1.142.005.001.008.009.012.019l.014.279c-.025-.003-.413-.07-1.231-.549a5.876 5.876 0 0 1-1.417-1.195s.17.979 1.028 1.645c.916.711 1.647.847 1.647.847l.017.145.007.154c-1.703-.291-2.455-1.606-2.455-1.606s-.093.557.629 1.234a4.981 4.981 0 0 0 1.862 1.097l.024.504c-.42-.084-.807-.215-.968-.441-.235-.335-.62-.726-.973-.77-.781-.096-1.232.519-1.827 1.01-.594.491-1.084.252-1.995.575-.91.324-1.382 1.387-1.291 1.612.091.225-.065.279 1.285-.06 1.336-.335 1.409-.366 2.735-.191 1.326.175 2.149-.186 3.05-.211 1.432-.04 1.53.244 4.134.811 2.605.567 6.844 1.592 6.913 1.629.068.036.949.487 2.409.365 1.537-.128 2.364.037 4.26-.219 3.946-.533 4.968-1.127 4.968-1.127s1.408.949 3.307 2.027c3.043 1.727 5.209 2.675 5.209 2.675s.762 3.076 1.695 4.531c.488.759 1.226 1.37 1.331 1.491.714.828 1.364 1.578 2.001 2.361-.14.009-.279.016-.414.022-1.724.056-2.766-.345-2.766-.345s.261.693 1.447.954c1.072.237 1.962.052 2.224.029.037-.003.177.244.177.244s-.394.158-1.373.158c-.978 0-1.827-.313-1.827-.313s.641.757 1.719.898c1.15.15 1.85-.102 1.85-.102l.142.189.026.057c-1.614.608-2.928-.144-2.928-.144s.203.528 1.169.746c.741.167 1.311.212 1.94.033.019.319-.119.514-.245.799-.164.374-.467 1.005-.324 1.329.32.719 1.415.587 2.142.843.728.256.776.797 1.522 1.411.747.613 1.902.469 2.048.275.146-.193.273-.089-.714-1.07-.975-.971-1.04-1.016-1.574-2.243-.501-1.15-.532-.879-1.394-2.142.216-.203.294-.352.294-.352s.633-.976.46-1.407c-.096-.241-.8-.183-1.703-.074 0 0-.946-3.096-1.644-5.162-.698-2.068-1.75-4.212-1.781-4.288a3.41 3.41 0 0 1-.125-.439 2.189 2.189 0 0 0-.459-.854c-.283-.313-1.127-.966-1.213-1.043-.084-.077-.61-.807-1.815-2.096-1.204-1.289-3.373-3.134-3.373-3.134.081-.522.241-.62.714-1.16.472-.541 1.098-1.073 1.5-1.335 1.606-1.046 3.08-2.585 3.678-3.289l-.001-.001c-.152-.052-.266-.122-.312-.219l-.031-.065.002-.071c.001-.036.04-.889 1.105-1.168.148-.04.273-.071.379-.098l.154-.036c-.253-.152-.308-.327-.264-.311.051.017.601.132.83.139h.042c.009.001.017.003.026.003.366.018.757.09.406.195-.606.183-.633.163-1.5.39-.866.227-.886.896-.886.896.049.101.728.231 1.771.182 1.045-.048 2.185-.641 2.983-.76 1.372-.204 3.644.38 5.473-.341 1.176-.464 1.456-.993 1.886-1.244.431-.252.946-.567 1.102-.785.156-.217.221-.768-.168-1.004zm-47.326-8.075c-.909.228-1.45-.268-1.552-.382-.103-.115-.02-.241.15-.164.442.198.696.143.696.143s-.106-.499.039-.849c.145-.349.586-.558.673-.585.169-.055.219.116.129.145a.74.74 0 0 0-.479.599c-.056.409.376.507.617.293.24-.215.295-.498.357-.698.054-.174.194-.098.204.038.01.129.074 1.231-.834 1.46zm2.078 2.922c-.903.24-1.452-.249-1.554-.362-.103-.114-.025-.236.147-.165.49.2.697.134.697.134s-.099-.401.064-.832a1.02 1.02 0 0 1 .356-.461c.133-.087.195.075.117.16a.833.833 0 0 0-.184.439c-.05.409.382.502.62.285.238-.217.289-.501.348-.702.051-.173.193-.1.204.036.012.129.09 1.229-.815 1.468zm17.012 19.603c-1.703.27-2.324.478-2.298.17.027-.307 1.214-.206 2.508-.9 1.294-.693 1.569-1.575 1.848-1.611.287-.035.1.096.582.612.481.518.99.736.951.894-.04.157-1.886.565-3.591.835zm10.74 2.145c-.147.356-1.348-.343-4.241-2.144-2.546-1.585-3.618-2.123-3.52-3.679.066-1.065 1.222-2.046 2.241-2.259.471-.098.631-.023 1.19.33.7.44.852.632.694.717-.838.451-1.493 1.725-1.151 2.511.649 1.491 4.932 4.167 4.787 4.524zm-1.389-13.415c-1.979 1.143-1.947 2.052-2.028 2.237-.081.187-.876-.332-.844-.713.032-.381.132-.89.315-1.728.218-1.005.406-1.68.535-1.745.13-.066 1.122-.377 1.584-.726.462-.348.641-1.126.828-1.134.186-.009-.17 1.369.536 1.928.705.56 2.361.771 2.336.925-.025.155-1.282-.186-3.262.956zm6.042-5.915c-.397.099-1.143.142-1.843.165-.801.025-1.704.127-1.908.127-.382 0-.318-.365.541-.508.858-.143 2.146-.477 2.814-1.144.668-.666.461-2.032.715-2.049.255-.016-.095 1.414 1.017 1.668-1.112.666-.589 1.554-1.336 1.741zm6.49 4.509c-.868.413-1.55.544-2.489.431-.373-.045-.585-.062-.765-.08a4.97 4.97 0 0 1-.326-.044c1.3-.756 1.547-2.17 1.547-2.17s.722.406 2.024.66c.741.144 1.462.118 1.764.256-.55.187-.984.581-1.755.947zM46.787 49.74a.783.783 0 1 0 0 1.566.783.783 0 1 0 0-1.566zm0 1.436a.634.634 0 0 1-.641-.652.638.638 0 1 1 1.276 0c0 .376-.28.652-.635.652zm.362-.846c0-.179-.107-.26-.322-.26h-.346v.903h.139v-.392h.159l.237.392h.155l-.259-.398c.134-.016.237-.088.237-.245zm-.529.137v-.277h.189c.095 0 .199.017.199.129 0 .138-.107.148-.225.148h-.163zM10.803 63.771h3.528l1.396-6.05h4.432l.613-2.638H16.34l.622-2.704h4.904l.613-2.639h-8.432l-3.244 14.031zM34.378 49.74H23.852l-.613 2.639h3.49l-2.632 11.392h3.546l2.631-11.392h3.49l.614-2.639zm10.326 1.724c-.509-.565-1.209-.994-2.098-1.286-.889-.292-2.093-.438-3.608-.438h-3.263l-3.244 14.031h3.876c1.566 0 2.861-.173 3.885-.518 1.026-.346 2.019-.983 2.981-1.913.817-.798 1.451-1.776 1.9-2.936.45-1.159.675-2.401.675-3.726 0-.672-.093-1.274-.279-1.805a4.127 4.127 0 0 0-.825-1.409zm-3.028 6.366c-.307.901-.741 1.622-1.3 2.162a3.793 3.793 0 0 1-1.684.98 7.653 7.653 0 0 1-2.08.274l2.103-9.057c.504 0 .937.02 1.302.058.364.037.694.131.99.282.346.182.621.45.825.806.205.355.306.821.306 1.4 0 1.162-.153 2.193-.462 3.095z"/>
</svg>
