<?xml version="1.0" encoding="UTF-8"?>
<svg width="96px" height="82px" viewBox="0 0 96 82" version="1.1" xmlns="http://www.w3.org/2000/svg" xmlns:xlink="http://www.w3.org/1999/xlink">
    <title>Group 14</title>
    <defs>
        <polygon id="path-1" points="0.300416698 0.333362333 83.9939306 0.333362333 83.9939306 42 0.300416698 42"></polygon>
        <polygon id="path-3" points="0 0.398489887 95.9254416 0.398489887 95.9254416 15.76185 0 15.76185"></polygon>
        <polygon id="path-5" points="0.150561911 0.077122807 34.601493 0.077122807 34.601493 27.6067719 0.150561911 27.6067719"></polygon>
    </defs>
    <g id="Page-1" stroke="none" stroke-width="1" fill="none" fill-rule="evenodd">
        <g id="Paid" transform="translate(-704.000000, -119.000000)">
            <g id="Group-14" transform="translate(704.000000, 119.000000)">
                <g id="Group-3" transform="translate(6.000000, 40.000000)">
                    <mask id="mask-2" fill="white">
                        <use xlink:href="#path-1"></use>
                    </mask>
                    <g id="Clip-2"></g>
                    <path d="M83.9939306,1.66178372 C82.623711,8.78029535 81.2617457,15.9002721 79.8798728,23.0168302 C78.9888902,27.6041093 78.0566358,32.1840628 77.1646821,36.7718302 C76.3445896,40.9840395 75.1316879,41.9988767 70.8166127,41.9993651 C51.5165202,42.0002198 32.2169133,42.0008302 12.9168208,41.9988767 C9.07030058,41.9983884 7.8530289,40.9654814 7.09120231,37.0941558 C4.88146821,25.865993 2.66833526,14.6378302 0.46782659,3.40771395 C0.359549133,2.85585349 0.355179191,2.2834814 0.302739884,1.72087674 C0.26049711,0.978551163 0.801398844,0.77734186 1.34909827,0.603969767 C2.12840462,0.357830233 2.93830058,0.371016279 3.74236994,0.370527907 C29.327896,0.359295349 54.913422,0.351481395 80.4994335,0.398365116 C81.7346705,0.400318605 83.3170751,-0.103193023 83.9939306,1.66178372" id="Fill-1" fill="#00913A" mask="url(#mask-2)"></path>
                </g>
                <g id="Group-6" transform="translate(0.000000, 26.000000)">
                    <mask id="mask-4" fill="white">
                        <use xlink:href="#path-3"></use>
                    </mask>
                    <g id="Clip-5"></g>
                    <path d="M90.1461929,15.70135 C89.4391066,14.87485 88.4888528,15.19335 87.6384975,15.19285 C61.3033096,15.17685 34.9676345,15.17735 8.63195939,15.19135 C7.78209137,15.19185 6.82598985,14.88385 6.1515533,15.76185 C6.03801015,15.64485 5.94542132,15.47135 5.80848731,15.41985 C0.627411168,13.46335 -1.01774619,10.12035 0.593786802,4.62535 C1.27309645,2.31085 2.84856853,1.12985 5.25100508,1.13935 C9.90724873,1.15785 14.5630051,1.14935 19.219736,1.15185 C21.8531574,-0.02665 24.6337462,0.59235 27.3514721,0.47835 C28.8791878,0.41435 30.4156751,0.39735 31.946802,0.49335 C42.7460711,0.44235 53.5453401,0.40985 64.3441218,0.50035 C68.5929746,0.66385 72.8808122,-0.11015 77.0882437,1.05835 C81.5870863,1.08585 86.0859289,1.09885 90.5842843,1.14585 C94.2171777,1.18335 95.8793909,2.88885 95.9188629,6.56635 C95.9290964,7.55585 95.9266599,8.54535 95.9188629,9.53485 C95.8910863,12.96085 94.6776853,14.48135 91.4010152,15.09585 C90.8995736,15.18985 90.4731777,15.29685 90.1461929,15.70135" id="Fill-4" fill="#2DA844" mask="url(#mask-4)"></path>
                </g>
                <g id="Group-9" transform="translate(43.000000, 0.000000)">
                    <mask id="mask-6" fill="white">
                        <use xlink:href="#path-5"></use>
                    </mask>
                    <g id="Clip-8"></g>
                    <path d="M34.601493,27.566 C30.3162113,27.5797544 26.0304366,27.5930175 21.7456479,27.6067719 C20.5916338,27.2825614 19.8566338,26.3983509 19.0545915,25.6050175 C14.2265634,20.8292982 9.46853521,15.9838246 4.58825352,11.2572281 C3.57177465,10.2389123 2.51783099,9.25842105 1.55804225,8.18852632 C0.222126761,6.69961404 -0.338366197,5.06235088 0.658394366,3.15491228 C4.12930986,-0.839263158 6.12578873,-0.923754386 9.81952113,2.77077193 C18.0800141,11.0356842 26.340507,19.3010877 34.601493,27.566" id="Fill-7" fill="#00612E" mask="url(#mask-6)"></path>
                </g>
                <path d="M43.4927666,4 C43.1054652,6.54562943 44.3174389,8.36695924 46.2063311,9.93242756 C46.8704868,10.4826259 47.38198,11.2093303 47.9626867,11.8552363 C48.1585463,12.7021763 47.5434783,13.182157 47.0467114,13.6736804 C42.6072257,18.0675724 38.1328877,22.4263557 33.6742577,26.8014909 C33.14902,27.3175424 32.5256071,27.6686305 31.8801047,28 C27.5869001,27.9971143 23.2932046,27.9942287 19,27.9903811 C27.0184653,19.8504268 35.1743759,11.8451365 43.4927666,4" id="Fill-10" fill="#008038"></path>
                <path d="M37.8806439,54.8884622 C38.2176675,55.3948053 38.4345688,55.8496808 38.7638113,56.1942686 C40.5534897,58.0662186 42.4589137,59.8337629 44.1503543,61.7905118 C45.4405763,63.2835623 46.2264786,63.5815842 47.7953652,61.9106029 C52.6133935,56.7780582 57.6877155,51.8910874 62.5996047,46.8467729 C63.5620432,45.858595 64.0712261,45.6238048 65.2019333,46.7457984 C68.8863365,50.3990173 68.9480999,50.3357857 65.2923899,54.0203754 C59.3076663,60.0523776 53.2927905,66.0554599 47.364967,72.1438314 C46.2444726,73.2947449 45.6205168,73.2800399 44.5248251,72.1315772 C41.0062589,68.4415957 37.4040447,64.8310213 33.7570886,61.270444 C32.758662,60.2959909 32.7280235,59.6842618 33.7828638,58.7906863 C34.8279777,57.9049534 35.7315708,56.8515833 36.708599,55.8830122 C36.9789961,55.6144004 37.2897582,55.3869626 37.8806439,54.8884622" id="Fill-12" fill="#D7E7C3"></path>
            </g>
        </g>
    </g>
</svg>